<svg version="1.2" xmlns="http://www.w3.org/2000/svg" viewBox="0 0 512 512" width="512" height="512"><style>.a{fill:#ff0b0b}</style><path class="a" d="m256 5.3c-141.4 0-256 115.1-256 257.1 0 113.5 73.3 209.8 175.1 243.8 12.8 2.4 17.5-5.5 17.5-12.4 0-6.1-0.2-22.2-0.4-43.7-71.2 15.5-86.2-34.4-86.2-34.4-11.6-29.7-28.4-37.6-28.4-37.6-23.3-16 1.7-15.7 1.7-15.7 25.7 1.9 39.2 26.5 39.2 26.5 22.8 39.3 59.9 28 74.5 21.4 2.3-16.6 9-27.9 16.3-34.4-56.9-6.5-116.6-28.5-116.6-127 0-28.1 10-51 26.3-69-2.6-6.5-11.4-32.6 2.5-68 0 0 21.5-6.9 70.4 26.4 20.5-5.7 42.3-8.6 64.1-8.7 21.8 0.1 43.7 3 64.1 8.7 48.9-33.3 70.4-26.3 70.4-26.3 13.9 35.3 5.1 61.5 2.5 68 16.4 17.9 26.3 40.9 26.3 68.9 0 98.8-59.8 120.5-116.8 126.9 9.1 7.9 17.3 23.6 17.3 47.5 0 34.4-0.3 62.1-0.3 70.5 0 6.9 4.6 14.9 17.6 12.4 101.6-34.1 174.9-130.3 174.9-243.8 0-142-114.6-257.1-256-257.1z"/></svg>