<svg version="1.2" xmlns="http://www.w3.org/2000/svg" viewBox="0 0 512 512" width="512" height="512"><style>.a{fill:#ff0b0b}</style><path class="a" d="m305 256c0 27.1-21.9 49-49 49-27.1 0-49-21.9-49-49 0-27.1 21.9-49 49-49 27.1 0 49 21.9 49 49z"/><path fill-rule="evenodd" class="a" d="m375.7 196.6c0.7 15.5 0.8 20.1 0.8 59.4 0 39.3-0.1 43.9-0.8 59.4-0.7 14.3-3.1 22.1-5.1 27.3-5 12.8-15.1 23-27.9 27.9-5.2 2-13 4.4-27.3 5.1-15.5 0.7-20.1 0.8-59.4 0.8-39.3 0-43.9-0.1-59.4-0.8-14.3-0.7-22.1-3.1-27.3-5.1-6.4-2.4-12.2-6.1-16.9-11-4.9-4.7-8.6-10.5-11-16.9-2-5.2-4.4-13-5.1-27.3-0.7-15.5-0.8-20.1-0.8-59.4 0-39.2 0.1-43.9 0.8-59.4 0.7-14.3 3.1-22.1 5.1-27.3 2.4-6.4 6.1-12.2 11-16.9 4.7-4.9 10.5-8.6 16.9-11 5.2-2 13-4.4 27.3-5.1 15.5-0.7 20.1-0.8 59.4-0.8 39.3 0 43.9 0.1 59.4 0.8 14.3 0.7 22.1 3.1 27.3 5.1 6.4 2.4 12.2 6.1 16.9 11 4.9 4.7 8.6 10.5 11 16.9 2 5.2 4.4 13 5.1 27.3zm-44.2 59.4c0-41.7-33.8-75.5-75.5-75.5-41.7 0-75.5 33.8-75.5 75.5 0 41.7 33.8 75.5 75.5 75.5 41.7 0 75.5-33.8 75.5-75.5zm20.6-78.5c0-9.7-7.9-17.6-17.6-17.6-9.8 0-17.7 7.9-17.7 17.6 0 9.8 7.9 17.7 17.7 17.7 9.7 0 17.6-7.9 17.6-17.7z"/><path fill-rule="evenodd" class="a" d="m512 256c0 141.4-114.6 256-256 256-141.4 0-256-114.6-256-256 0-141.4 114.6-256 256-256 141.4 0 256 114.6 256 256zm-109 0c0-39.9-0.2-44.9-0.9-60.6-0.7-15.7-3.2-26.3-6.8-35.7-3.7-9.8-9.5-18.7-17-26-7.3-7.5-16.2-13.3-26-17-9.4-3.6-20-6.1-35.7-6.8-15.7-0.7-20.7-0.9-60.6-0.9-39.9 0-44.9 0.2-60.6 0.9-15.7 0.7-26.3 3.2-35.7 6.8-9.8 3.7-18.7 9.5-26 17-7.5 7.3-13.3 16.2-17 26-3.6 9.4-6.1 20-6.8 35.7-0.7 15.7-0.9 20.7-0.9 60.6 0 39.9 0.2 44.9 0.9 60.6 0.7 15.7 3.2 26.3 6.8 35.7 3.7 9.8 9.5 18.7 17 26 7.3 7.5 16.2 13.3 26 17 9.4 3.6 20.1 6.1 35.7 6.8 15.7 0.7 20.7 0.9 60.6 0.9 39.9 0 44.9-0.2 60.6-0.9 15.7-0.7 26.3-3.2 35.7-6.8 19.7-7.7 35.3-23.3 43-43 3.6-9.4 6.1-20 6.8-35.7 0.7-15.7 0.9-20.7 0.9-60.6z"/></svg>