<svg version="1.2" xmlns="http://www.w3.org/2000/svg" viewBox="0 0 512 512" width="512" height="512"><style>.a{fill:#ff0b0b}</style><path fill-rule="evenodd" class="a" d="m512 256c0 141.4-114.6 256-256 256-141.4 0-256-114.6-256-256 0-141.4 114.6-256 256-256 141.4 0 256 114.6 256 256zm-330.4-56.6h-62.3v187.6h62.3zm4.1-58c-0.4-18.4-13.5-32.4-34.8-32.4-21.4 0-35.3 14-35.3 32.4 0 18 13.5 32.4 34.4 32.4h0.4c21.8 0 35.3-14.4 35.3-32.4zm220.7 138c0-57.6-30.7-84.4-71.8-84.4-33 0-47.9 18.2-56.1 31v-26.6h-62.4c0.8 17.6 0 187.6 0 187.6h62.4v-104.8c0-5.6 0.4-11.2 2-15.2 4.5-11.2 14.8-22.8 32-22.8 22.6 0 31.6 17.2 31.6 42.4v100.4h62.3z"/></svg>